<?xml version="1.0" encoding="UTF-8"?>
<svg id="Layer_1" data-name="Layer 1" xmlns="http://www.w3.org/2000/svg" xmlns:xlink="http://www.w3.org/1999/xlink" viewBox="0 0 1920 1080">
  <defs>
    <linearGradient id="linear-gradient" x1="1065.123" y1="470.43" x2="1280.923" y2="470.43" gradientUnits="userSpaceOnUse">
      <stop offset="0" stop-color="#ffb56c"/>
      <stop offset=".087" stop-color="#f6b471"/>
      <stop offset=".229" stop-color="#ddb47f"/>
      <stop offset=".409" stop-color="#b5b397"/>
      <stop offset=".619" stop-color="#7eb2b8"/>
      <stop offset=".852" stop-color="#39b0e2"/>
      <stop offset="1" stop-color="#09b0ff"/>
    </linearGradient>
    <linearGradient id="linear-gradient-2" x1="957.203" y1="606.675" x2="1110.423" y2="606.675" xlink:href="#linear-gradient"/>
    <linearGradient id="linear-gradient-3" x1="690.113" y1="334.035" x2="1167.393" y2="334.035" xlink:href="#linear-gradient"/>
    <linearGradient id="linear-gradient-4" x1="639.013" y1="497.385" x2="826.313" y2="497.385" xlink:href="#linear-gradient"/>
    <linearGradient id="linear-gradient-5" x1="185.309" y1="837.844" x2="1758.062" y2="837.844" gradientUnits="userSpaceOnUse">
      <stop offset="0" stop-color="#ffb56c"/>
      <stop offset=".099" stop-color="#f1b47f"/>
      <stop offset=".403" stop-color="#ccb2b5"/>
      <stop offset=".665" stop-color="#b1b1dd"/>
      <stop offset=".873" stop-color="#a1b0f6"/>
      <stop offset="1" stop-color="#9bb0ff"/>
    </linearGradient>
  </defs>
  <g>
    <path d="M1173.103,362.61c0,59.06,48.71,107.82,107.82,107.82-59.06.01-107.82,48.72-107.82,107.82-.1-59.51-48.45-107.81-107.98-107.82,59.53,0,107.89-48.23,107.98-107.82Z" fill="url(#linear-gradient)" stroke-width="0"/>
    <path d="M1033.903,530.13c.02,42,34.56,76.58,76.52,76.7-41.91,0-76.51,34.99-76.51,76.39h-.01c-.19-41.9-34.75-76.37-76.7-76.39,42.03-.02,76.67-34.72,76.7-76.7Z" fill="url(#linear-gradient-2)" stroke-width="0"/>
    <path d="M1167.393,334.03c-131.72,0-238.56,107.06-238.59,238.52h-.1c-.11-131.68-106.9-238.45-238.59-238.52,131.71,0,238.56-107.05,238.59-238.51.1,131.71,106.96,238.5,238.69,238.51Z" fill="url(#linear-gradient-3)" stroke-width="0"/>
    <path d="M732.703,405.14c0,51.3,42.35,93.65,93.61,93.69-50.37,0-92.11,40.8-93.66,90.8-1.58-50.38-42.89-90.74-93.64-90.8,51.32,0,93.68-42.39,93.69-93.69Z" fill="url(#linear-gradient-4)" stroke-width="0"/>
  </g>
  <g>
    <path d="M185.309,902.785v-173.34h24.414v173.34h-24.414ZM185.309,752.639v-23.193h114.746v23.193h-114.746ZM185.309,834.914v-23.193h92.773v23.193h-92.773Z" fill="url(#linear-gradient-5)" stroke-width="0"/>
    <path d="M370.367,905.227c-13.592,0-24.108-4.047-31.555-12.146-7.446-8.097-11.17-19.511-11.17-34.241v-85.449h25.879v85.449c0,7.406,2.115,13.123,6.348,17.151,4.23,4.028,10.172,6.042,17.822,6.042,9.439,0,16.56-2.99,21.362-8.972,4.801-5.981,7.202-16.011,7.202-30.091l6.592,34.912h-8.545c-2.035,8.789-6.023,15.545-11.963,20.264-5.941,4.719-13.266,7.08-21.973,7.08ZM406.256,866.164v-92.773h25.879v85.449l-25.879,7.324ZM408.453,904.006l-2.197-31.006v-22.705h25.879v29.053l17.822,2.686v20.752l-41.504,1.221Z" fill="url(#linear-gradient-5)" stroke-width="0"/>
    <path d="M519.537,905.227c-9.766,0-18.127-.286-25.085-.854-6.958-.57-13.327-1.507-19.104-2.808l2.93-23.438c8.545,1.303,16.093,2.279,22.645,2.93,6.55.652,12.756.977,18.615.977,13.102,0,22.603-1.281,28.504-3.845,5.899-2.563,8.85-6.653,8.85-12.269,0-3.906-1.037-6.814-3.112-8.728-2.075-1.911-5.271-3.397-9.583-4.456l-29.785-7.568c-12.777-3.254-22.155-7.282-28.137-12.085-5.981-4.801-8.973-12.085-8.973-21.851,0-14.16,5.433-24.414,16.297-30.762s28.381-9.521,52.551-9.521c6.266,0,12.104.184,17.518.55,5.411.366,10.965.997,16.662,1.892l-2.686,22.461c-6.592-.65-12.411-1.099-17.456-1.343-5.047-.244-9.97-.366-14.771-.366-14.486,0-24.984,1.242-31.494,3.724-6.512,2.483-9.766,6.53-9.766,12.146,0,3.744,1.343,6.451,4.028,8.118,2.686,1.669,6.794,3.194,12.329,4.577l23.926,5.859c13.59,3.256,23.539,7.61,29.847,13.062,6.306,5.453,9.46,13.388,9.46,23.804,0,13.916-5.087,24.029-15.259,30.335-10.174,6.308-26.489,9.46-48.95,9.46Z" fill="url(#linear-gradient-5)" stroke-width="0"/>
    <path d="M622.32,902.785v-21.24h51.758v21.24h-51.758ZM629.645,794.631v-21.24h67.871v21.24h-67.871ZM683.722,752.883c-4.965,0-9.216-1.77-12.756-5.31s-5.311-7.792-5.311-12.757c0-5.045,1.771-9.317,5.311-12.817,3.54-3.498,7.791-5.249,12.756-5.249,5.045,0,9.317,1.751,12.817,5.249,3.498,3.5,5.249,7.772,5.249,12.817,0,4.965-1.751,9.217-5.249,12.757-3.5,3.54-7.772,5.31-12.817,5.31ZM671.637,902.785v-122.07h25.879v122.07h-25.879ZM695.074,902.785v-21.24h42.236v21.24h-42.236Z" fill="url(#linear-gradient-5)" stroke-width="0"/>
    <path d="M822.516,905.227c-17.904,0-31.82-5.859-41.748-17.578-9.93-11.719-14.893-28.238-14.893-49.561s4.963-37.942,14.893-49.621c9.928-11.677,23.844-17.518,41.748-17.518s31.922,5.841,41.81,17.518c9.888,11.679,14.831,28.219,14.831,49.621s-4.943,37.842-14.831,49.561-23.825,17.578-41.81,17.578ZM822.516,882.033c9.521,0,16.865-3.824,22.034-11.475,5.167-7.648,7.751-18.473,7.751-32.471,0-14.078-2.584-24.921-7.751-32.531-5.169-7.608-12.513-11.414-22.034-11.414s-16.866,3.806-22.033,11.414c-5.169,7.61-7.752,18.453-7.752,32.531,0,13.998,2.583,24.822,7.752,32.471,5.167,7.65,12.512,11.475,22.033,11.475Z" fill="url(#linear-gradient-5)" stroke-width="0"/>
    <path d="M916.266,902.785v-129.395h23.438l2.441,27.344v102.051h-25.879ZM995.855,902.785v-84.229c0-7.812-2.035-13.834-6.104-18.066-4.07-4.23-9.766-6.348-17.09-6.348-20.346,0-30.518,11.963-30.518,35.889l-7.568-33.203h10.01c.732-8.707,3.906-15.197,9.521-19.47s13.834-6.409,24.658-6.409c13.672,0,24.25,4.15,31.738,12.451,7.486,8.301,11.23,20.02,11.23,35.156v84.229h-25.879Z" fill="url(#linear-gradient-5)" stroke-width="0"/>
    <path d="M1109.503,905.227c-9.848,0-19.063-.793-27.648-2.38-8.587-1.587-16.541-3.968-23.865-7.142l3.174-24.658c8.951,3.826,17.598,6.735,25.94,8.729,8.341,1.995,16.458,2.99,24.353,2.99,11.393,0,19.855-1.993,25.391-5.981,5.533-3.986,8.301-10.05,8.301-18.188,0-10.334-5.291-17.902-15.869-22.705l-30.029-13.672c-11.801-5.371-20.854-11.841-27.16-19.409-6.308-7.568-9.461-16.968-9.461-28.198,0-15.137,4.557-26.855,13.672-35.156,9.113-8.301,22.013-12.451,38.696-12.451,11.637,0,21.931,1.709,30.884,5.127,8.951,3.418,17.578,8.993,25.879,16.724l-17.09,17.334c-7.162-5.859-13.854-10.11-20.08-12.756-6.226-2.644-12.717-3.968-19.471-3.968-8.383,0-14.873,2.015-19.47,6.043-4.599,4.028-6.897,9.99-6.897,17.883,0,5.615,1.505,10.193,4.517,13.733,3.01,3.54,7.446,6.694,13.306,9.46l25.391,11.963c12.857,6.023,22.623,12.817,29.297,20.386,6.672,7.568,10.01,17.294,10.01,29.175,0,15.707-5.107,27.487-15.319,35.34-10.214,7.854-25.696,11.779-46.448,11.779Z" fill="url(#linear-gradient-5)" stroke-width="0"/>
    <path d="M1209.234,958.938v-185.547h23.438l2.441,27.344v158.203h-25.879ZM1271.856,905.227c-9.93,0-17.925-2.279-23.986-6.836-6.063-4.557-9.503-10.904-10.315-19.043h-11.23l8.789-36.865c0,13.348,2.625,23.479,7.874,30.396,5.249,6.918,12.958,10.376,23.132,10.376,10.416,0,18.311-3.702,23.682-11.108,5.371-7.404,8.057-18.351,8.057-32.837,0-15.299-2.686-26.855-8.057-34.668s-13.266-11.719-23.682-11.719c-10.174,0-17.883,3.46-23.132,10.376-5.249,6.918-7.874,17.05-7.874,30.396l-8.789-36.865h10.01c1.139-8.137,4.822-14.484,11.048-19.043,6.226-4.557,14.383-6.836,24.475-6.836,17.008,0,29.865,5.779,38.574,17.334,8.707,11.557,13.062,28.564,13.062,51.025,0,21.648-4.354,38.046-13.062,49.194-8.709,11.15-21.566,16.724-38.574,16.724Z" fill="url(#linear-gradient-5)" stroke-width="0"/>
    <path d="M1389.41,905.227c-13.51,0-23.968-3.254-31.372-9.766-7.406-6.51-11.108-15.705-11.108-27.588,0-13.672,5.106-24.17,15.32-31.494,10.212-7.324,24.637-10.986,43.273-10.986,7.73,0,14.628.47,20.691,1.404,6.062.937,11.453,2.34,16.174,4.211l-5.371,17.578c-5.453-1.221-10.784-1.932-15.991-2.136-5.209-.202-10.54-.306-15.991-.306-22.461,0-33.691,6.836-33.691,20.508,0,5.697,1.933,10.092,5.799,13.184,3.864,3.094,9.338,4.639,16.418,4.639,8.057,0,14.79-1.383,20.203-4.15,5.411-2.766,9.46-6.306,12.146-10.62,2.686-4.312,4.028-8.747,4.028-13.306v-14.16l7.568,33.203h-10.254l4.15-3.906c0,7.488-1.729,13.733-5.188,18.738-3.46,5.005-8.322,8.749-14.588,11.23-6.268,2.481-13.672,3.723-22.217,3.723ZM1435.064,904.006l-1.709-38.33-3.418-10.742v-33.447c0-8.625-3.032-14.953-9.094-18.981-6.063-4.028-15.076-6.205-27.039-6.531l-31.006-.854,2.441-22.949,26.123.366c21.402.326,37.293,4.944,47.669,13.855s15.563,21.911,15.563,39.001v53.955l21.973,2.686v20.752l-41.504,1.221Z" fill="url(#linear-gradient-5)" stroke-width="0"/>
    <path d="M1567.389,905.227c-22.055,0-39.083-5.798-51.086-17.395-12.005-11.597-18.006-28.26-18.006-49.988,0-21.158,5.677-37.598,17.029-49.316s27.566-17.578,48.645-17.578c12.613,0,23.417,2.341,32.41,7.02,8.991,4.681,15.399,11.291,19.226,19.836l-19.897,15.015c-3.662-5.939-8.343-10.538-14.038-13.794-5.697-3.254-11.923-4.883-18.677-4.883-12.207,0-21.688,3.684-28.442,11.048-6.756,7.366-10.132,17.843-10.132,31.433,0,14.73,3.968,25.982,11.902,33.753,7.935,7.772,19.266,11.657,33.996,11.657,6.021,0,12.043-.284,18.066-.854,6.021-.568,11.881-1.343,17.578-2.319l2.93,22.705c-6.674,1.465-13.57,2.441-20.69,2.93-7.122.488-14.06.732-20.813.732Z" fill="url(#linear-gradient-5)" stroke-width="0"/>
    <path d="M1713.873,905.227c-22.055,0-39.083-5.798-51.086-17.395-12.005-11.597-18.006-28.26-18.006-49.988,0-21.158,5.085-37.598,15.259-49.316,10.172-11.719,24.536-17.578,43.091-17.578,17.496,0,31.025,5.291,40.589,15.869,9.562,10.58,14.343,25.961,14.343,46.143,0,5.941-.244,11.475-.732,16.602h-90.82v-19.775h68.115c0-11.637-2.768-20.568-8.301-26.794-5.535-6.226-13.184-9.339-22.949-9.339-10.986,0-19.512,3.744-25.573,11.23-6.063,7.488-9.095,18.066-9.095,31.738,0,14.975,4.17,26.367,12.513,34.18,8.341,7.812,20.202,11.719,35.583,11.719,5.371,0,10.66-.305,15.869-.915,5.207-.61,10.498-1.444,15.869-2.503l3.174,22.705c-7.65,1.465-14.648,2.399-20.996,2.808-6.348.406-11.963.61-16.846.61Z" fill="url(#linear-gradient-5)" stroke-width="0"/>
  </g>
</svg>